<svg width="20" height="21" viewBox="0 0 20 21" fill="none" xmlns="http://www.w3.org/2000/svg">
<g clip-path="url(#clip0_6221_3369)">
<path d="M15.8341 2.16667H15.0007V1.33333C15.0007 1.11232 14.9129 0.900358 14.7567 0.744078C14.6004 0.587797 14.3884 0.5 14.1674 0.5C13.9464 0.5 13.7344 0.587797 13.5781 0.744078C13.4219 0.900358 13.3341 1.11232 13.3341 1.33333V2.16667H6.6674V1.33333C6.6674 1.11232 6.5796 0.900358 6.42332 0.744078C6.26704 0.587797 6.05508 0.5 5.83407 0.5C5.61305 0.5 5.40109 0.587797 5.24481 0.744078C5.08853 0.900358 5.00073 1.11232 5.00073 1.33333V2.16667H4.1674C3.06274 2.16799 2.0037 2.6074 1.22258 3.38852C0.441467 4.16963 0.00205564 5.22867 0.000732422 6.33333L0.000732422 16.3333C0.00205564 17.438 0.441467 18.497 1.22258 19.2782C2.0037 20.0593 3.06274 20.4987 4.1674 20.5H15.8341C16.9387 20.4987 17.9978 20.0593 18.7789 19.2782C19.56 18.497 19.9994 17.438 20.0007 16.3333V6.33333C19.9994 5.22867 19.56 4.16963 18.7789 3.38852C17.9978 2.6074 16.9387 2.16799 15.8341 2.16667ZM1.6674 6.33333C1.6674 5.67029 1.93079 5.03441 2.39963 4.56557C2.86847 4.09673 3.50436 3.83333 4.1674 3.83333H15.8341C16.4971 3.83333 17.133 4.09673 17.6018 4.56557C18.0707 5.03441 18.3341 5.67029 18.3341 6.33333V7.16667H1.6674V6.33333ZM15.8341 18.8333H4.1674C3.50436 18.8333 2.86847 18.5699 2.39963 18.1011C1.93079 17.6323 1.6674 16.9964 1.6674 16.3333V8.83333H18.3341V16.3333C18.3341 16.9964 18.0707 17.6323 17.6018 18.1011C17.133 18.5699 16.4971 18.8333 15.8341 18.8333Z" fill="#344054"/>
<path d="M10.0012 14.25C10.6915 14.25 11.2512 13.6904 11.2512 13C11.2512 12.3096 10.6915 11.75 10.0012 11.75C9.3108 11.75 8.75116 12.3096 8.75116 13C8.75116 13.6904 9.3108 14.25 10.0012 14.25Z" fill="#344054"/>
<path d="M5.83447 14.25C6.52483 14.25 7.08447 13.6904 7.08447 13C7.08447 12.3096 6.52483 11.75 5.83447 11.75C5.14412 11.75 4.58447 12.3096 4.58447 13C4.58447 13.6904 5.14412 14.25 5.83447 14.25Z" fill="#344054"/>
<path d="M14.1678 14.25C14.8582 14.25 15.4178 13.6904 15.4178 13C15.4178 12.3096 14.8582 11.75 14.1678 11.75C13.4775 11.75 12.9178 12.3096 12.9178 13C12.9178 13.6904 13.4775 14.25 14.1678 14.25Z" fill="#344054"/>
</g>
<defs>
<clipPath id="clip0_6221_3369">
<rect width="20" height="20" fill="white" transform="translate(0 0.5)"/>
</clipPath>
</defs>
</svg>
