<svg width="20" height="21" viewBox="0 0 20 21" fill="none" xmlns="http://www.w3.org/2000/svg">
<g clip-path="url(#clip0_6221_3347)">
<path d="M6.25037 11.3333C5.50869 11.3333 4.78366 11.1134 4.16698 10.7013C3.55029 10.2893 3.06965 9.70362 2.78582 9.0184C2.50199 8.33318 2.42773 7.57918 2.57242 6.85175C2.71712 6.12432 3.07427 5.45613 3.59872 4.93168C4.12316 4.40724 4.79135 4.05008 5.51878 3.90539C6.24621 3.7607 7.00021 3.83496 7.68543 4.11879C8.37065 4.40262 8.95632 4.88326 9.36838 5.49995C9.78043 6.11663 10.0004 6.84166 10.0004 7.58334C9.99926 8.57756 9.60382 9.53075 8.9008 10.2338C8.19778 10.9368 7.24459 11.3322 6.25037 11.3333ZM6.25037 5.5C5.83832 5.5 5.43553 5.62219 5.09293 5.85111C4.75033 6.08003 4.4833 6.4054 4.32562 6.78608C4.16793 7.16676 4.12668 7.58565 4.20706 7.98977C4.28745 8.3939 4.48587 8.76511 4.77723 9.05647C5.06859 9.34783 5.4398 9.54625 5.84393 9.62664C6.24805 9.70702 6.66694 9.66577 7.04762 9.50808C7.4283 9.3504 7.75367 9.08338 7.98259 8.74077C8.21151 8.39817 8.3337 7.99538 8.3337 7.58334C8.3337 7.0308 8.11421 6.5009 7.72351 6.1102C7.3328 5.7195 6.8029 5.5 6.25037 5.5ZM12.5004 17.1667C12.499 16.062 12.0596 15.003 11.2785 14.2219C10.4974 13.4407 9.43836 13.0013 8.3337 13H4.16703C3.06237 13.0013 2.00333 13.4407 1.22222 14.2219C0.441101 15.003 0.00168943 16.062 0.000366211 17.1667L0.000366211 20.5H1.66703V17.1667C1.66703 16.5036 1.93043 15.8677 2.39927 15.3989C2.86811 14.9301 3.50399 14.6667 4.16703 14.6667H8.3337C8.99674 14.6667 9.63263 14.9301 10.1015 15.3989C10.5703 15.8677 10.8337 16.5036 10.8337 17.1667V20.5H12.5004V17.1667ZM14.5837 8C13.842 8 13.117 7.78007 12.5003 7.36801C11.8836 6.95596 11.403 6.37029 11.1192 5.68506C10.8353 4.99984 10.7611 4.24584 10.9058 3.51841C11.0504 2.79098 11.4076 2.1228 11.932 1.59835C12.4565 1.0739 13.1247 0.716751 13.8521 0.572057C14.5795 0.427362 15.3335 0.501625 16.0188 0.785453C16.704 1.06928 17.2897 1.54993 17.7017 2.16661C18.1138 2.7833 18.3337 3.50832 18.3337 4.25C18.3326 5.24423 17.9372 6.19741 17.2341 6.90043C16.5311 7.60346 15.5779 7.9989 14.5837 8ZM14.5837 2.16667C14.1717 2.16667 13.7689 2.28885 13.4263 2.51777C13.0837 2.74669 12.8166 3.07207 12.6589 3.45274C12.5013 3.83342 12.46 4.25231 12.5404 4.65644C12.6208 5.06057 12.8192 5.43178 13.1106 5.72314C13.4019 6.0145 13.7731 6.21292 14.1773 6.2933C14.5814 6.37369 15.0003 6.33243 15.381 6.17475C15.7616 6.01707 16.087 5.75004 16.3159 5.40744C16.5448 5.06484 16.667 4.66205 16.667 4.25C16.667 3.69747 16.4475 3.16756 16.0568 2.77686C15.6661 2.38616 15.1362 2.16667 14.5837 2.16667ZM20.0004 13.8333C19.999 12.7287 19.5596 11.6696 18.7785 10.8885C17.9974 10.1074 16.9384 9.66799 15.8337 9.66667H12.5004V11.3333H15.8337C16.4967 11.3333 17.1326 11.5967 17.6015 12.0656C18.0703 12.5344 18.3337 13.1703 18.3337 13.8333V17.1667H20.0004V13.8333Z" fill="#344054"/>
</g>
<defs>
<clipPath id="clip0_6221_3347">
<rect width="20" height="20" fill="white" transform="translate(0 0.5)"/>
</clipPath>
</defs>
</svg>
