<svg width="20" height="21" viewBox="0 0 20 21" fill="none" xmlns="http://www.w3.org/2000/svg">
<g clip-path="url(#clip0_6221_3342)">
<path d="M19.2682 8.05922L12.9474 1.73755C12.1651 0.957544 11.1055 0.519531 10.0007 0.519531C8.89602 0.519531 7.83637 0.957544 7.05408 1.73755L0.733243 8.05922C0.500264 8.29071 0.315551 8.56614 0.189811 8.86954C0.0640718 9.17295 -0.000192912 9.49829 0.000742488 9.82672V18.0076C0.000742488 18.6706 0.264135 19.3065 0.732976 19.7753C1.20182 20.2442 1.8377 20.5076 2.50074 20.5076H17.5007C18.1638 20.5076 18.7997 20.2442 19.2685 19.7753C19.7374 19.3065 20.0007 18.6706 20.0007 18.0076V9.82672C20.0017 9.49829 19.9374 9.17295 19.8117 8.86954C19.6859 8.56614 19.5012 8.29071 19.2682 8.05922ZM12.5007 18.8409H7.50074V15.5626C7.50074 14.8995 7.76413 14.2636 8.23298 13.7948C8.70182 13.3259 9.3377 13.0626 10.0007 13.0626C10.6638 13.0626 11.2997 13.3259 11.7685 13.7948C12.2374 14.2636 12.5007 14.8995 12.5007 15.5626V18.8409ZM18.3341 18.0076C18.3341 18.2286 18.2463 18.4405 18.09 18.5968C17.9337 18.7531 17.7218 18.8409 17.5007 18.8409H14.1674V15.5626C14.1674 14.4575 13.7284 13.3977 12.947 12.6163C12.1656 11.8349 11.1058 11.3959 10.0007 11.3959C8.89567 11.3959 7.83587 11.8349 7.05446 12.6163C6.27306 13.3977 5.83408 14.4575 5.83408 15.5626V18.8409H2.50074C2.27973 18.8409 2.06777 18.7531 1.91149 18.5968C1.75521 18.4405 1.66741 18.2286 1.66741 18.0076V9.82672C1.66818 9.60587 1.7559 9.39421 1.91158 9.23755L8.23241 2.91839C8.70216 2.45083 9.33796 2.18834 10.0007 2.18834C10.6635 2.18834 11.2993 2.45083 11.7691 2.91839L18.0899 9.24005C18.245 9.39609 18.3326 9.60674 18.3341 9.82672V18.0076Z" fill="#344054"/>
</g>
<defs>
<clipPath id="clip0_6221_3342">
<rect width="20" height="20" fill="white" transform="translate(0 0.5)"/>
</clipPath>
</defs>
</svg>
