<svg width="20" height="21" viewBox="0 0 20 21" fill="none" xmlns="http://www.w3.org/2000/svg">
<path d="M13.3333 5.77865V5.11198C13.3333 4.17856 13.3333 3.71185 13.1517 3.35533C12.9919 3.04172 12.7369 2.78676 12.4233 2.62697C12.0668 2.44531 11.6001 2.44531 10.6667 2.44531H9.33333C8.39991 2.44531 7.9332 2.44531 7.57668 2.62697C7.26308 2.78676 7.00811 3.04172 6.84832 3.35533C6.66667 3.71185 6.66667 4.17856 6.66667 5.11198V5.77865M8.33333 10.362V14.5286M11.6667 10.362V14.5286M2.5 5.77865H17.5M15.8333 5.77865V15.112C15.8333 16.5121 15.8333 17.2122 15.5608 17.747C15.3212 18.2174 14.9387 18.5998 14.4683 18.8395C13.9335 19.112 13.2335 19.112 11.8333 19.112H8.16667C6.76654 19.112 6.06647 19.112 5.53169 18.8395C5.06129 18.5998 4.67883 18.2174 4.43915 17.747C4.16667 17.2122 4.16667 16.5121 4.16667 15.112V5.77865" stroke="#475467" stroke-width="1.66667" stroke-linecap="round" stroke-linejoin="round"/>
</svg>
