<svg width="20" height="21" viewBox="0 0 20 21" fill="none" xmlns="http://www.w3.org/2000/svg">
<path d="M9.16675 4.11152H5.66675C4.26662 4.11152 3.56655 4.11152 3.03177 4.384C2.56137 4.62369 2.17892 5.00614 1.93923 5.47654C1.66675 6.01132 1.66675 6.71139 1.66675 8.11152V15.1115C1.66675 16.5116 1.66675 17.2117 1.93923 17.7465C2.17892 18.2169 2.56137 18.5993 3.03177 18.839C3.56655 19.1115 4.26662 19.1115 5.66675 19.1115H12.6667C14.0669 19.1115 14.7669 19.1115 15.3017 18.839C15.7721 18.5993 16.1546 18.2169 16.3943 17.7465C16.6667 17.2117 16.6667 16.5116 16.6667 15.1115V11.6115M6.66673 14.1115H8.06218C8.46983 14.1115 8.67366 14.1115 8.86547 14.0655C9.03553 14.0246 9.1981 13.9573 9.34722 13.8659C9.51542 13.7628 9.65954 13.6187 9.9478 13.3305L17.9167 5.36152C18.6071 4.67116 18.6071 3.55187 17.9167 2.86152C17.2264 2.17116 16.1071 2.17116 15.4167 2.86152L7.44778 10.8305C7.15952 11.1187 7.0154 11.2628 6.91233 11.431C6.82094 11.5802 6.7536 11.7427 6.71278 11.9128C6.66673 12.1046 6.66673 12.3084 6.66673 12.7161V14.1115Z" stroke="#475467" stroke-width="1.66667" stroke-linecap="round" stroke-linejoin="round"/>
</svg>
