<svg width="20" height="21" viewBox="0 0 20 21" fill="none" xmlns="http://www.w3.org/2000/svg">
<path d="M2.01677 11.0943C1.90328 10.9146 1.84654 10.8247 1.81477 10.6861C1.79091 10.582 1.79091 10.4179 1.81477 10.3138C1.84654 10.1752 1.90328 10.0853 2.01677 9.90564C2.95461 8.42066 5.74617 4.66663 10.0003 4.66663C14.2545 4.66663 17.0461 8.42066 17.9839 9.90564C18.0974 10.0853 18.1541 10.1752 18.1859 10.3138C18.2098 10.4179 18.2098 10.582 18.1859 10.6861C18.1541 10.8247 18.0974 10.9146 17.9839 11.0943C17.0461 12.5793 14.2545 16.3333 10.0003 16.3333C5.74617 16.3333 2.95461 12.5793 2.01677 11.0943Z" stroke="#344054" stroke-width="1.66667" stroke-linecap="round" stroke-linejoin="round"/>
<path d="M10.0003 13C11.381 13 12.5003 11.8807 12.5003 10.5C12.5003 9.11925 11.381 7.99996 10.0003 7.99996C8.61962 7.99996 7.50034 9.11925 7.50034 10.5C7.50034 11.8807 8.61962 13 10.0003 13Z" stroke="#344054" stroke-width="1.66667" stroke-linecap="round" stroke-linejoin="round"/>
</svg>
