<svg width="24" height="25" viewBox="0 0 24 25" fill="none" xmlns="http://www.w3.org/2000/svg">
<path d="M12 2.77734L10.6985 7.98333C10.4445 8.99919 10.3176 9.50712 10.0531 9.92043C9.81915 10.286 9.50868 10.5965 9.14309 10.8304C8.72978 11.0949 8.22185 11.2219 7.20599 11.4758L2 12.7773L7.20599 14.0788C8.22185 14.3328 8.72978 14.4598 9.14309 14.7243C9.50868 14.9582 9.81915 15.2687 10.0531 15.6343C10.3176 16.0476 10.4445 16.5555 10.6985 17.5714L12 22.7773L13.3015 17.5714C13.5555 16.5555 13.6824 16.0476 13.9469 15.6343C14.1808 15.2687 14.4913 14.9582 14.8569 14.7243C15.2702 14.4598 15.7782 14.3328 16.794 14.0788L22 12.7773L16.794 11.4758C15.7782 11.2219 15.2702 11.0949 14.8569 10.8304C14.4913 10.5965 14.1808 10.286 13.9469 9.92043C13.6824 9.50712 13.5555 8.99919 13.3015 7.98334L12 2.77734Z" stroke="#167F3D" stroke-width="2" stroke-linecap="round" stroke-linejoin="round"/>
</svg>
