<svg width="24" height="25" viewBox="0 0 24 25" fill="none" xmlns="http://www.w3.org/2000/svg">
<path d="M14 3.04688V7.17742C14 7.73747 14 8.01749 14.109 8.23141C14.2049 8.41957 14.3578 8.57255 14.546 8.66842C14.7599 8.77741 15.0399 8.77741 15.6 8.77741H19.7305M14 17.7773H8M16 13.7773H8M20 10.7656V17.9773C20 19.6575 20 20.4976 19.673 21.1393C19.3854 21.7038 18.9265 22.1627 18.362 22.4504C17.7202 22.7773 16.8802 22.7773 15.2 22.7773H8.8C7.11984 22.7773 6.27976 22.7773 5.63803 22.4504C5.07354 22.1627 4.6146 21.7038 4.32698 21.1393C4 20.4976 4 19.6575 4 17.9773V7.57734C4 5.89719 4 5.05711 4.32698 4.41537C4.6146 3.85089 5.07354 3.39194 5.63803 3.10432C6.27976 2.77734 7.11984 2.77734 8.8 2.77734H12.0118C12.7455 2.77734 13.1124 2.77734 13.4577 2.86023C13.7638 2.93372 14.0564 3.05494 14.3249 3.21942C14.6276 3.40495 14.887 3.66438 15.4059 4.18323L18.5941 7.37146C19.113 7.89031 19.3724 8.14974 19.5579 8.45249C19.7224 8.72091 19.8436 9.01354 19.9171 9.31965C20 9.66491 20 10.0318 20 10.7656Z" stroke="#4E5BA6" stroke-width="2" stroke-linecap="round" stroke-linejoin="round"/>
</svg>
