<svg width="16" height="16" viewBox="0 0 16 16" fill="none" xmlns="http://www.w3.org/2000/svg">
<path d="M8.66536 4.66667L7.92167 3.17928C7.70763 2.7512 7.60061 2.53715 7.44094 2.38078C7.29975 2.24249 7.12958 2.13732 6.94275 2.07287C6.73147 2 6.49217 2 6.01356 2H3.46536C2.71863 2 2.34526 2 2.06004 2.14532C1.80916 2.27316 1.60519 2.47713 1.47736 2.72801C1.33203 3.01323 1.33203 3.3866 1.33203 4.13333V4.66667M1.33203 4.66667H11.4654C12.5855 4.66667 13.1455 4.66667 13.5733 4.88465C13.9497 5.0764 14.2556 5.38236 14.4474 5.75869C14.6654 6.18651 14.6654 6.74656 14.6654 7.86667V10.8C14.6654 11.9201 14.6654 12.4802 14.4474 12.908C14.2556 13.2843 13.9497 13.5903 13.5733 13.782C13.1455 14 12.5855 14 11.4654 14H4.53203C3.41193 14 2.85187 14 2.42405 13.782C2.04773 13.5903 1.74176 13.2843 1.55002 12.908C1.33203 12.4802 1.33203 11.9201 1.33203 10.8V4.66667Z" stroke="#344054" stroke-width="1.33333" stroke-linecap="round" stroke-linejoin="round"/>
</svg>
