<svg width="24" height="25" viewBox="0 0 24 25" fill="none" xmlns="http://www.w3.org/2000/svg">
<path d="M13 7.77734L11.8845 5.54626C11.5634 4.90415 11.4029 4.58307 11.1634 4.34851C10.9516 4.14107 10.6963 3.98332 10.4161 3.88665C10.0992 3.77734 9.74021 3.77734 9.02229 3.77734H5.2C4.0799 3.77734 3.51984 3.77734 3.09202 3.99533C2.71569 4.18708 2.40973 4.49304 2.21799 4.86936C2 5.29719 2 5.85724 2 6.97734V7.77734M2 7.77734H17.2C18.8802 7.77734 19.7202 7.77734 20.362 8.10432C20.9265 8.39194 21.3854 8.85089 21.673 9.41537C22 10.0571 22 10.8972 22 12.5773V16.9773C22 18.6575 22 19.4976 21.673 20.1393C21.3854 20.7038 20.9265 21.1627 20.362 21.4504C19.7202 21.7773 18.8802 21.7773 17.2 21.7773H6.8C5.11984 21.7773 4.27976 21.7773 3.63803 21.4504C3.07354 21.1627 2.6146 20.7038 2.32698 20.1393C2 19.4976 2 18.6575 2 16.9773V7.77734Z" stroke="#DC6803" stroke-width="2" stroke-linecap="round" stroke-linejoin="round"/>
</svg>
