<svg width="20" height="21" viewBox="0 0 20 21" fill="none" xmlns="http://www.w3.org/2000/svg">
<path d="M11.6666 9.66797H6.66665M8.33331 13.0013H6.66665M13.3333 6.33464H6.66665M16.6666 6.16797V14.8346C16.6666 16.2348 16.6666 16.9348 16.3942 17.4696C16.1545 17.94 15.772 18.3225 15.3016 18.5622C14.7668 18.8346 14.0668 18.8346 12.6666 18.8346H7.33331C5.93318 18.8346 5.23312 18.8346 4.69834 18.5622C4.22793 18.3225 3.84548 17.94 3.6058 17.4696C3.33331 16.9348 3.33331 16.2348 3.33331 14.8346V6.16797C3.33331 4.76784 3.33331 4.06777 3.6058 3.53299C3.84548 3.06259 4.22793 2.68014 4.69834 2.44045C5.23312 2.16797 5.93318 2.16797 7.33331 2.16797H12.6666C14.0668 2.16797 14.7668 2.16797 15.3016 2.44045C15.772 2.68014 16.1545 3.06259 16.3942 3.53299C16.6666 4.06777 16.6666 4.76784 16.6666 6.16797Z" stroke="#344054" stroke-width="2" stroke-linecap="round" stroke-linejoin="round"/>
</svg>
