<svg width="20" height="20" viewBox="0 0 20 20" fill="none" xmlns="http://www.w3.org/2000/svg">
<path d="M1.66797 5.83398L5.99617 8.71945C6.24587 8.88592 6.37072 8.96915 6.5058 9.02812C6.62569 9.08046 6.75133 9.1185 6.88012 9.14145C7.02521 9.16732 7.17526 9.16732 7.47537 9.16732H12.5272C12.8273 9.16732 12.9774 9.16732 13.1225 9.14145C13.2513 9.1185 13.3769 9.08046 13.4968 9.02812C13.6319 8.96916 13.7567 8.88592 14.0064 8.71945L18.3346 5.83398M5.66797 16.6673H14.3346C15.7348 16.6673 16.4348 16.6673 16.9696 16.3948C17.44 16.1552 17.8225 15.7727 18.0622 15.3023C18.3346 14.7675 18.3346 14.0674 18.3346 12.6673V7.33398C18.3346 5.93385 18.3346 5.23379 18.0622 4.69901C17.8225 4.2286 17.44 3.84615 16.9696 3.60647C16.4348 3.33398 15.7348 3.33398 14.3346 3.33398H5.66797C4.26784 3.33398 3.56777 3.33398 3.03299 3.60647C2.56259 3.84615 2.18014 4.2286 1.94045 4.69901C1.66797 5.23379 1.66797 5.93385 1.66797 7.33398V12.6673C1.66797 14.0674 1.66797 14.7675 1.94045 15.3023C2.18014 15.7727 2.56259 16.1552 3.03299 16.3948C3.56777 16.6673 4.26784 16.6673 5.66797 16.6673Z" stroke="black" stroke-width="1.5" stroke-linecap="round" stroke-linejoin="round"/>
</svg>
