<svg width="20" height="21" viewBox="0 0 20 21" fill="none" xmlns="http://www.w3.org/2000/svg">
<path d="M5.07866 9.85863C5.02686 9.52482 4.99999 9.18285 4.99999 8.83464C4.99999 5.15274 8.00439 2.16797 11.7105 2.16797C15.4166 2.16797 18.421 5.15274 18.421 8.83464C18.421 9.66636 18.2677 10.4625 17.9877 11.1967C17.9295 11.3492 17.9004 11.4255 17.8872 11.485C17.8741 11.544 17.8691 11.5854 17.8676 11.6458C17.8662 11.7068 17.8745 11.7739 17.891 11.9082L18.2265 14.6334C18.2628 14.9284 18.281 15.0759 18.2319 15.1832C18.1889 15.2771 18.1125 15.3517 18.0176 15.3926C17.9093 15.4391 17.7622 15.4176 17.4681 15.3745L14.8137 14.9854C14.6751 14.9651 14.6058 14.9549 14.5427 14.9553C14.4803 14.9556 14.4371 14.9602 14.376 14.9731C14.3142 14.9861 14.2353 15.0156 14.0775 15.0747C13.3414 15.3505 12.5437 15.5013 11.7105 15.5013C11.362 15.5013 11.0197 15.4749 10.6856 15.424M6.35967 18.8346C8.83042 18.8346 10.8334 16.7826 10.8334 14.2513C10.8334 11.72 8.83042 9.66797 6.35967 9.66797C3.88892 9.66797 1.88599 11.72 1.88599 14.2513C1.88599 14.7601 1.96692 15.2496 2.11631 15.7069C2.17946 15.9002 2.21104 15.9969 2.2214 16.0629C2.23222 16.1319 2.23412 16.1706 2.23009 16.2402C2.22623 16.307 2.20953 16.3824 2.17614 16.5332L1.66669 18.8346L4.16236 18.4938C4.29857 18.4752 4.36668 18.4659 4.42616 18.4663C4.48879 18.4667 4.52203 18.4701 4.58344 18.4824C4.64177 18.494 4.72849 18.5246 4.90191 18.5858C5.35885 18.7471 5.84928 18.8346 6.35967 18.8346Z" stroke="#344054" stroke-width="2" stroke-linecap="round" stroke-linejoin="round"/>
</svg>
