<svg width="20" height="20" viewBox="0 0 20 20" fill="none" xmlns="http://www.w3.org/2000/svg">
<path d="M6.98356 7.37877C7.56356 8.58679 8.35422 9.71899 9.35553 10.7203C10.3568 11.7216 11.4891 12.5123 12.6971 13.0923C12.801 13.1422 12.8529 13.1671 12.9187 13.1863C13.1523 13.2544 13.4392 13.2055 13.637 13.0638C13.6927 13.0239 13.7403 12.9763 13.8356 12.881C14.1269 12.5897 14.2726 12.444 14.4191 12.3488C14.9715 11.9896 15.6837 11.9896 16.2361 12.3488C16.3825 12.444 16.5282 12.5897 16.8196 12.881L16.9819 13.0434C17.4248 13.4863 17.6462 13.7077 17.7665 13.9455C18.0058 14.4185 18.0058 14.9771 17.7665 15.45C17.6462 15.6878 17.4248 15.9093 16.9819 16.3521L16.8506 16.4835C16.4092 16.9249 16.1886 17.1455 15.8885 17.3141C15.5556 17.5011 15.0385 17.6356 14.6567 17.6344C14.3126 17.6334 14.0774 17.5666 13.607 17.4331C11.0792 16.7157 8.69387 15.3619 6.70388 13.372C4.7139 11.382 3.36017 8.99667 2.6427 6.46884C2.50919 5.99847 2.44244 5.76328 2.44141 5.41916C2.44028 5.03731 2.57475 4.52023 2.76176 4.18731C2.9303 3.88728 3.15098 3.66661 3.59233 3.22525L3.72369 3.09389C4.16656 2.65102 4.388 2.42959 4.62581 2.3093C5.09878 2.07008 5.65734 2.07008 6.1303 2.3093C6.36812 2.42959 6.58955 2.65102 7.03242 3.09389L7.19481 3.25628C7.48615 3.54762 7.63182 3.69329 7.72706 3.83977C8.08622 4.39218 8.08622 5.10433 7.72706 5.65674C7.63182 5.80322 7.48615 5.94889 7.19482 6.24023C7.09955 6.33549 7.05193 6.38312 7.01206 6.4388C6.87038 6.63665 6.82146 6.92354 6.88957 7.15717C6.90873 7.22291 6.93368 7.27486 6.98356 7.37877Z" stroke="black" stroke-width="1.5" stroke-linecap="round" stroke-linejoin="round"/>
</svg>
