<svg width="20" height="21" viewBox="0 0 20 21" fill="none" xmlns="http://www.w3.org/2000/svg">
<g clip-path="url(#clip0_6221_3357)">
<path d="M10.8337 9.66667H17.5004C18.8787 9.66667 20.0004 8.545 20.0004 7.16667V4.66667C20.0004 3.28833 18.8787 2.16667 17.5004 2.16667H15.3454L14.167 0.988333C13.852 0.673333 13.4337 0.5 12.9887 0.5H10.8337C9.45537 0.5 8.3337 1.62167 8.3337 3V4.66667H1.66703V1.33333C1.66703 0.8725 1.2937 0.5 0.8337 0.5C0.3737 0.5 0.000366211 0.8725 0.000366211 1.33333V13C0.000366211 15.2975 1.86953 17.1667 4.16703 17.1667H8.3337V18C8.3337 19.3783 9.45537 20.5 10.8337 20.5H17.5004C18.8787 20.5 20.0004 19.3783 20.0004 18V15.5C20.0004 14.1217 18.8787 13 17.5004 13H15.3454L14.167 11.8217C13.852 11.5067 13.4337 11.3333 12.9887 11.3333H10.8337C9.45537 11.3333 8.3337 12.455 8.3337 13.8333V15.5H4.16703C2.7887 15.5 1.66703 14.3783 1.66703 13V6.33333H8.3337V7.16667C8.3337 8.545 9.45537 9.66667 10.8337 9.66667ZM10.0004 13.8333C10.0004 13.3733 10.3745 13 10.8337 13H12.9887L14.167 14.1783C14.482 14.4933 14.9004 14.6667 15.3454 14.6667H17.5004C17.9595 14.6667 18.3337 15.04 18.3337 15.5V18C18.3337 18.46 17.9595 18.8333 17.5004 18.8333H10.8337C10.3745 18.8333 10.0004 18.46 10.0004 18V13.8333ZM10.0004 3C10.0004 2.54 10.3745 2.16667 10.8337 2.16667H12.9887L14.167 3.345C14.482 3.66 14.9004 3.83333 15.3454 3.83333H17.5004C17.9595 3.83333 18.3337 4.20667 18.3337 4.66667V7.16667C18.3337 7.62667 17.9595 8 17.5004 8H10.8337C10.3745 8 10.0004 7.62667 10.0004 7.16667V3Z" fill="#344054"/>
</g>
<defs>
<clipPath id="clip0_6221_3357">
<rect width="20" height="20" fill="white" transform="translate(0 0.5)"/>
</clipPath>
</defs>
</svg>
