<svg width="20" height="21" viewBox="0 0 20 21" fill="none" xmlns="http://www.w3.org/2000/svg">
<g clip-path="url(#clip0_6221_3351)">
<path d="M19.2682 1.2325C18.7992 0.76423 18.1635 0.501223 17.5007 0.501223C16.838 0.501223 16.2023 0.76423 15.7332 1.2325L10.1441 6.82167C9.83344 7.13032 9.58716 7.49757 9.41951 7.9021C9.25186 8.30664 9.16617 8.74043 9.1674 9.17833V10.5C9.1674 10.721 9.2552 10.933 9.41148 11.0893C9.56776 11.2455 9.77972 11.3333 10.0007 11.3333H11.3224C11.7603 11.3344 12.194 11.2486 12.5985 11.081C13.003 10.9133 13.3703 10.6671 13.6791 10.3567L19.2682 4.7675C20.2382 3.83667 20.2382 2.16333 19.2682 1.2325ZM18.0899 3.58917L12.5007 9.17833C12.1857 9.49333 11.7674 9.66667 11.3224 9.66667H10.8341V9.17833C10.8341 8.74 11.0124 8.31 11.3224 8L16.9116 2.41083C17.0678 2.25461 17.2798 2.16684 17.5007 2.16684C17.7217 2.16684 17.9336 2.25461 18.0899 2.41083C18.2453 2.56754 18.3325 2.7793 18.3325 3C18.3325 3.2207 18.2453 3.43246 18.0899 3.58917ZM10.0007 15.5C9.77972 15.5 9.56776 15.4122 9.41148 15.2559C9.2552 15.0996 9.1674 14.8877 9.1674 14.6667C9.1674 14.4457 9.2552 14.2337 9.41148 14.0774C9.56776 13.9211 9.77972 13.8333 10.0007 13.8333H12.5007C12.7217 13.8333 12.9337 13.9211 13.09 14.0774C13.2463 14.2337 13.3341 14.4457 13.3341 14.6667C13.3341 14.8877 13.2463 15.0996 13.09 15.2559C12.9337 15.4122 12.7217 15.5 12.5007 15.5H10.0007ZM16.6674 12.1667V16.3333C16.6674 18.6308 14.7982 20.5 12.5007 20.5H4.1674C1.8699 20.5 0.000732422 18.6308 0.000732422 16.3333V4.66667C0.000732422 2.36917 1.8699 0.5 4.1674 0.5H11.6674C11.8884 0.5 12.1004 0.587797 12.2567 0.744078C12.4129 0.900358 12.5007 1.11232 12.5007 1.33333C12.5007 1.55435 12.4129 1.76631 12.2567 1.92259C12.1004 2.07887 11.8884 2.16667 11.6674 2.16667H4.1674C2.78907 2.16667 1.6674 3.28833 1.6674 4.66667V16.3333C1.6674 17.7117 2.78907 18.8333 4.1674 18.8333H12.5007C13.8791 18.8333 15.0007 17.7117 15.0007 16.3333V12.1667C15.0007 11.9457 15.0885 11.7337 15.2448 11.5774C15.4011 11.4211 15.6131 11.3333 15.8341 11.3333C16.0551 11.3333 16.267 11.4211 16.4233 11.5774C16.5796 11.7337 16.6674 11.9457 16.6674 12.1667ZM7.6399 10.2225L6.23407 11.6283C5.89962 11.9648 5.44777 12.1585 4.97349 12.1687C4.49921 12.179 4.03941 12.005 3.69073 11.6833L3.13323 11.2008C2.97564 11.0535 2.88127 10.8508 2.86995 10.6353C2.85863 10.4199 2.93123 10.2084 3.07251 10.0453C3.2138 9.88225 3.41277 9.78026 3.62765 9.76078C3.84252 9.7413 4.05659 9.80583 4.2249 9.94083L4.79907 10.4392C4.8849 10.5167 4.98907 10.5158 5.0549 10.45L6.46073 9.04417C6.61699 8.88791 6.82892 8.80013 7.0499 8.80013C7.27088 8.80013 7.48281 8.88791 7.63907 9.04417C7.79532 9.20042 7.88311 9.41235 7.88311 9.63333C7.88311 9.85431 7.79616 10.0662 7.6399 10.2225ZM7.6399 6.08917L6.23407 7.495C5.89962 7.83144 5.44777 8.02515 4.97349 8.0354C4.49921 8.04566 4.03941 7.87167 3.69073 7.55L3.13323 7.0675C2.97564 6.92014 2.88127 6.71744 2.86995 6.50198C2.85863 6.28652 2.93123 6.07505 3.07251 5.91198C3.2138 5.74891 3.41277 5.64693 3.62765 5.62745C3.84252 5.60797 4.05659 5.6725 4.2249 5.8075L4.79907 6.30583C4.8849 6.38417 4.98907 6.3825 5.0549 6.31667L6.46073 4.91083C6.5381 4.83346 6.62995 4.77209 6.73104 4.73022C6.83213 4.68834 6.94048 4.66679 7.0499 4.66679C7.15932 4.66679 7.26766 4.68834 7.36875 4.73022C7.46984 4.77209 7.5617 4.83346 7.63907 4.91083C7.71644 4.9882 7.77781 5.08006 7.81968 5.18115C7.86155 5.28223 7.88311 5.39058 7.88311 5.5C7.88311 5.60942 7.86155 5.71777 7.81968 5.81885C7.77781 5.91994 7.71727 6.0118 7.6399 6.08917ZM7.6399 13.2108C7.71735 13.2882 7.7788 13.38 7.82073 13.4811C7.86265 13.5822 7.88423 13.6906 7.88423 13.8C7.88423 13.9094 7.86265 14.0178 7.82073 14.1189C7.7788 14.22 7.71735 14.3118 7.6399 14.3892L6.23407 15.795C5.89962 16.1314 5.44777 16.3251 4.97349 16.3354C4.49921 16.3457 4.03941 16.1717 3.69073 15.85L3.13323 15.3675C2.97564 15.2201 2.88127 15.0174 2.86995 14.802C2.85863 14.5865 2.93123 14.375 3.07251 14.212C3.2138 14.0489 3.41277 13.9469 3.62765 13.9274C3.84252 13.908 4.05659 13.9725 4.2249 14.1075L4.79907 14.6058C4.8849 14.6833 4.98907 14.6825 5.0549 14.6167L6.46073 13.2108C6.53806 13.1334 6.62989 13.0719 6.73099 13.03C6.83208 12.9881 6.94045 12.9665 7.0499 12.9665C7.15934 12.9665 7.26771 12.9881 7.36881 13.03C7.46991 13.0719 7.56258 13.1334 7.6399 13.2108Z" fill="#344054"/>
</g>
<defs>
<clipPath id="clip0_6221_3351">
<rect width="20" height="20" fill="white" transform="translate(0 0.5)"/>
</clipPath>
</defs>
</svg>
