<svg width="20" height="21" viewBox="0 0 20 21" fill="none" xmlns="http://www.w3.org/2000/svg">
<g clip-path="url(#clip0_6221_3377)">
<path d="M18.7508 3.8125H16.1791C16.0143 3.81254 15.8532 3.86143 15.7162 3.953C15.5792 4.04457 15.4724 4.1747 15.4094 4.32695C15.3463 4.4792 15.3298 4.64673 15.362 4.80836C15.3941 4.96999 15.4734 5.11846 15.59 5.235L16.495 6.14L13.5066 9.1275C13.3478 9.27925 13.1367 9.36393 12.917 9.36393C12.6974 9.36393 12.4862 9.27925 12.3275 9.1275L12.1858 8.985C11.7096 8.53006 11.0764 8.27619 10.4179 8.27619C9.75932 8.27619 9.12611 8.53006 8.64995 8.985L4.39995 13.235C4.24337 13.392 4.15557 13.6048 4.15588 13.8266C4.1562 14.0484 4.24459 14.2609 4.40162 14.4175C4.55865 14.5741 4.77146 14.6619 4.99322 14.6616C5.21498 14.6613 5.42753 14.5729 5.58412 14.4158L9.83412 10.1658C9.9928 10.0139 10.204 9.92908 10.4237 9.92908C10.6434 9.92908 10.8546 10.0139 11.0133 10.1658L11.155 10.3083C11.6313 10.7629 12.2644 11.0165 12.9229 11.0165C13.5813 11.0165 14.2144 10.7629 14.6908 10.3083L17.6791 7.32L18.5841 8.225C18.7011 8.33962 18.8492 8.41726 19.01 8.44821C19.1708 8.47915 19.3371 8.46205 19.4882 8.39902C19.6394 8.33599 19.7686 8.22983 19.8597 8.0938C19.9509 7.95778 19.9999 7.79791 20.0008 7.63417V5.0625C20.0008 4.73098 19.8691 4.41304 19.6347 4.17862C19.4003 3.9442 19.0823 3.8125 18.7508 3.8125Z" fill="#344054"/>
<path d="M19.167 18.8133H4.16703C3.50399 18.8133 2.86811 18.5499 2.39927 18.0811C1.93043 17.6123 1.66703 16.9764 1.66703 16.3133V1.33333C1.66703 1.11232 1.57924 0.900358 1.42296 0.744078C1.26667 0.587797 1.05471 0.5 0.8337 0.5C0.612686 0.5 0.400724 0.587797 0.244444 0.744078C0.0881636 0.900358 0.000366211 1.11232 0.000366211 1.33333L0.000366211 16.3133C0.00168943 17.418 0.441101 18.477 1.22222 19.2582C2.00333 20.0393 3.06237 20.4787 4.16703 20.48H19.167C19.388 20.48 19.6 20.3922 19.7563 20.2359C19.9126 20.0796 20.0004 19.8677 20.0004 19.6467C20.0004 19.4257 19.9126 19.2137 19.7563 19.0574C19.6 18.9011 19.388 18.8133 19.167 18.8133Z" fill="#344054"/>
</g>
<defs>
<clipPath id="clip0_6221_3377">
<rect width="20" height="20" fill="white" transform="translate(0 0.5)"/>
</clipPath>
</defs>
</svg>
