<svg width="20" height="21" viewBox="0 0 20 21" fill="none" xmlns="http://www.w3.org/2000/svg">
<path d="M17.5 8.83329H2.5M13.3333 2.16663V5.49996M6.66667 2.16663V5.49996M6.5 18.8333H13.5C14.9001 18.8333 15.6002 18.8333 16.135 18.5608C16.6054 18.3211 16.9878 17.9387 17.2275 17.4683C17.5 16.9335 17.5 16.2334 17.5 14.8333V7.83329C17.5 6.43316 17.5 5.7331 17.2275 5.19832C16.9878 4.72791 16.6054 4.34546 16.135 4.10578C15.6002 3.83329 14.9001 3.83329 13.5 3.83329H6.5C5.09987 3.83329 4.3998 3.83329 3.86502 4.10578C3.39462 4.34546 3.01217 4.72791 2.77248 5.19832C2.5 5.7331 2.5 6.43316 2.5 7.83329V14.8333C2.5 16.2334 2.5 16.9335 2.77248 17.4683C3.01217 17.9387 3.39462 18.3211 3.86502 18.5608C4.3998 18.8333 5.09987 18.8333 6.5 18.8333Z" stroke="#344054" stroke-width="1.66667" stroke-linecap="round" stroke-linejoin="round"/>
</svg>
