<svg width="20" height="21" viewBox="0 0 20 21" fill="none" xmlns="http://www.w3.org/2000/svg">
<g clip-path="url(#clip0_6221_3361)">
<path d="M11.2504 10.5C11.2504 12.3383 12.7454 13.8333 14.5837 13.8333C16.422 13.8333 17.917 12.3383 17.917 10.5C17.917 8.66167 16.422 7.16667 14.5837 7.16667C12.7454 7.16667 11.2504 8.66167 11.2504 10.5ZM14.5837 8.83333C15.5029 8.83333 16.2504 9.58083 16.2504 10.5C16.2504 11.4192 15.5029 12.1667 14.5837 12.1667C13.6645 12.1667 12.917 11.4192 12.917 10.5C12.917 9.58083 13.6645 8.83333 14.5837 8.83333ZM10.0004 7.16667C11.8387 7.16667 13.3337 5.67167 13.3337 3.83333C13.3337 1.995 11.8387 0.5 10.0004 0.5C8.16203 0.5 6.66703 1.995 6.66703 3.83333C6.66703 5.67167 8.16203 7.16667 10.0004 7.16667ZM10.0004 2.16667C10.9195 2.16667 11.667 2.91417 11.667 3.83333C11.667 4.7525 10.9195 5.5 10.0004 5.5C9.0812 5.5 8.3337 4.7525 8.3337 3.83333C8.3337 2.91417 9.0812 2.16667 10.0004 2.16667ZM5.41703 13.8333C7.25537 13.8333 8.75037 12.3383 8.75037 10.5C8.75037 8.66167 7.25537 7.16667 5.41703 7.16667C3.5787 7.16667 2.0837 8.66167 2.0837 10.5C2.0837 12.3383 3.5787 13.8333 5.41703 13.8333ZM5.41703 8.83333C6.3362 8.83333 7.0837 9.58083 7.0837 10.5C7.0837 11.4192 6.3362 12.1667 5.41703 12.1667C4.49787 12.1667 3.75037 11.4192 3.75037 10.5C3.75037 9.58083 4.49787 8.83333 5.41703 8.83333ZM20.0004 18V20.5H18.3337V18C18.3337 17.2183 17.8037 16.5692 17.0745 16.3883L14.5887 19.2692L12.0695 16.3967C11.3537 16.5858 10.8337 17.2317 10.8337 17.9992V20.4992H9.16703V17.9992C9.16703 17.2175 8.63703 16.5683 7.9087 16.3875L5.42203 19.2683L2.90287 16.3958C2.18703 16.585 1.66703 17.2308 1.66703 17.9983V20.4983H0.000366211V17.9983C0.000366211 16.2083 1.40537 14.7492 3.19953 14.6758L3.59787 14.6592L5.41287 16.7283L7.19703 14.6608L7.59203 14.6717C8.5637 14.6983 9.4137 15.1358 10.0029 15.8067C10.5837 15.1475 11.417 14.7133 12.3662 14.675L12.7645 14.6583L14.5795 16.7275L16.3637 14.66L16.7587 14.6708C18.577 14.7208 20.0012 16.1817 20.0012 17.9967L20.0004 18Z" fill="#344054"/>
</g>
<defs>
<clipPath id="clip0_6221_3361">
<rect width="20" height="20" fill="white" transform="translate(0 0.5)"/>
</clipPath>
</defs>
</svg>
