<svg width="20" height="20" viewBox="0 0 20 20" fill="none" xmlns="http://www.w3.org/2000/svg">
<path d="M13.3333 6.6653V3.74918C13.3333 3.05607 13.3333 2.70951 13.1873 2.49653C13.0598 2.31045 12.8622 2.18405 12.6398 2.1462C12.3852 2.10289 12.0706 2.24811 11.4413 2.53857L4.04918 5.9503C3.48792 6.20934 3.20729 6.33886 3.00175 6.53973C2.82005 6.71732 2.68135 6.9341 2.59625 7.1735C2.5 7.44429 2.5 7.75337 2.5 8.37152V12.4986M13.75 12.082H13.7583M2.5 9.33197L2.5 14.832C2.5 15.7654 2.5 16.2321 2.68166 16.5886C2.84144 16.9022 3.09641 17.1572 3.41002 17.317C3.76654 17.4986 4.23325 17.4986 5.16667 17.4986H14.8333C15.7668 17.4986 16.2335 17.4986 16.59 17.317C16.9036 17.1572 17.1586 16.9022 17.3183 16.5886C17.5 16.2321 17.5 15.7654 17.5 14.832V9.33197C17.5 8.39855 17.5 7.93184 17.3183 7.57532C17.1586 7.26172 16.9036 7.00675 16.59 6.84696C16.2335 6.6653 15.7668 6.6653 14.8333 6.6653L5.16667 6.6653C4.23325 6.6653 3.76654 6.6653 3.41002 6.84696C3.09641 7.00675 2.84144 7.26172 2.68166 7.57532C2.5 7.93184 2.5 8.39855 2.5 9.33197ZM14.1667 12.082C14.1667 12.3121 13.9801 12.4986 13.75 12.4986C13.5199 12.4986 13.3333 12.3121 13.3333 12.082C13.3333 11.8519 13.5199 11.6653 13.75 11.6653C13.9801 11.6653 14.1667 11.8519 14.1667 12.082Z" stroke="black" stroke-width="1.5" stroke-linecap="round" stroke-linejoin="round"/>
</svg>
